<svg 
 xmlns="http://www.w3.org/2000/svg"
 xmlns:xlink="http://www.w3.org/1999/xlink"
 width="102px" height="89px">
<path fill-rule="evenodd"  fill="rgb(255, 255, 255)"
 d="M52.305,88.518 C51.930,88.839 51.465,89.000 51.000,89.000 C50.535,89.000 50.070,88.839 49.695,88.518 C21.516,64.364 -0.000,47.454 -0.000,27.372 C-0.000,12.504 10.537,-0.000 25.649,-0.000 C33.544,-0.000 40.748,3.027 46.483,8.754 C48.476,10.745 49.967,12.734 51.000,14.313 C52.033,12.734 53.523,10.744 55.517,8.754 C61.252,3.027 68.456,0.000 76.351,0.000 C83.570,0.000 90.165,2.911 94.919,8.196 C99.485,13.272 102.000,20.082 102.000,27.372 C102.000,47.426 80.551,64.306 52.305,88.518 ZM76.351,3.941 C69.493,3.941 63.469,6.460 58.447,11.429 C54.621,15.214 52.835,19.077 52.818,19.116 C52.496,19.822 51.784,20.278 51.001,20.278 C51.000,20.278 50.998,20.278 50.997,20.278 C50.213,20.277 49.503,19.823 49.182,19.116 C49.165,19.077 47.380,15.214 43.553,11.429 C38.531,6.460 32.507,3.941 25.649,3.941 C13.298,3.941 3.984,14.014 3.984,27.372 C3.984,45.289 24.391,61.647 51.000,84.422 C76.263,62.800 98.016,45.694 98.016,27.372 C98.016,14.014 88.702,3.941 76.351,3.941 ZM84.537,48.850 C83.854,49.695 82.602,49.843 81.737,49.159 C80.877,48.480 80.737,47.240 81.424,46.390 C87.307,39.109 90.047,33.066 90.047,27.372 C90.047,24.473 89.323,21.511 88.008,19.031 C87.497,18.068 87.872,16.877 88.847,16.371 C89.821,15.866 91.025,16.237 91.536,17.201 C93.168,20.280 94.031,23.796 94.031,27.372 C94.031,34.008 91.014,40.833 84.537,48.850 ZM84.568,14.122 C83.469,14.122 82.576,13.240 82.576,12.152 C82.576,11.064 83.469,10.181 84.568,10.181 C85.668,10.181 86.561,11.064 86.561,12.152 C86.561,13.240 85.668,14.122 84.568,14.122 ZM70.125,53.531 L58.969,53.531 L58.969,64.566 C58.969,65.655 58.077,66.537 56.977,66.537 L45.023,66.537 C43.923,66.537 43.031,65.655 43.031,64.566 L43.031,53.531 L31.875,53.531 C30.775,53.531 29.883,52.649 29.883,51.561 L29.883,39.738 C29.883,38.650 30.775,37.768 31.875,37.768 L43.031,37.768 L43.031,26.733 C43.031,25.645 43.923,24.763 45.023,24.763 L56.977,24.763 C58.077,24.763 58.969,25.645 58.969,26.733 L58.969,37.768 L70.125,37.768 C71.225,37.768 72.117,38.650 72.117,39.738 L72.117,51.561 C72.117,52.649 71.225,53.531 70.125,53.531 ZM68.133,41.709 L56.977,41.709 C55.876,41.709 54.984,40.827 54.984,39.738 L54.984,28.704 L47.016,28.704 L47.016,39.738 C47.016,40.827 46.124,41.709 45.023,41.709 L33.867,41.709 L33.867,49.590 L45.023,49.590 C46.124,49.590 47.016,50.473 47.016,51.561 L47.016,62.596 L54.984,62.596 L54.984,51.561 C54.984,50.473 55.876,49.590 56.977,49.590 L68.133,49.590 L68.133,41.709 Z"/>
</svg>