<svg 
 xmlns="http://www.w3.org/2000/svg"
 xmlns:xlink="http://www.w3.org/1999/xlink"
 width="76px" height="89px">
<path fill-rule="evenodd"  fill="rgb(255, 255, 255)"
 d="M12.418,47.059 C12.578,48.836 13.576,50.507 15.246,51.445 C16.632,52.225 18.061,52.795 19.520,53.182 C18.698,55.964 17.187,59.989 14.497,64.299 C11.943,68.396 11.913,73.340 14.417,77.865 C18.106,84.534 26.253,89.015 34.692,89.015 C40.487,89.015 45.641,86.340 49.198,81.484 C54.287,74.537 55.414,64.287 52.214,54.071 C49.247,44.598 53.215,39.546 55.840,37.373 C57.979,39.441 60.884,40.716 64.091,40.716 C70.667,40.716 75.998,35.372 75.998,28.779 C75.998,22.187 70.667,16.845 64.091,16.845 C57.514,16.845 52.183,22.189 52.183,28.779 C52.183,29.707 52.299,30.607 52.499,31.474 C47.540,35.108 41.818,43.290 45.822,56.081 C48.347,64.146 47.574,72.356 43.798,77.509 C42.197,79.697 39.316,82.303 34.691,82.303 C28.707,82.303 22.778,79.141 20.274,74.612 C19.351,72.940 18.586,70.412 20.179,67.856 C23.735,62.150 25.516,56.825 26.360,53.570 C28.337,53.272 30.267,52.633 32.124,51.639 C33.779,50.753 34.795,49.150 35.018,47.418 C42.885,40.290 46.518,27.445 46.726,26.694 C47.150,25.152 46.427,23.569 45.073,22.847 C46.162,13.205 42.601,8.346 40.452,6.365 C40.614,5.439 40.247,4.448 39.433,3.917 L35.486,1.331 C34.455,0.656 33.158,0.996 32.593,2.097 L30.712,5.741 C30.146,6.840 30.645,8.015 31.829,8.364 L36.292,9.684 C37.425,10.018 38.779,9.476 39.420,8.482 C41.199,10.360 43.761,14.541 42.878,22.517 C41.665,22.749 40.624,23.634 40.271,24.907 C39.200,28.765 36.103,36.735 31.504,41.512 C30.040,40.946 28.357,40.973 26.865,41.770 C25.892,42.291 24.941,42.554 23.966,42.573 L23.764,42.573 C22.736,42.552 21.732,42.261 20.704,41.685 C19.248,40.865 17.590,40.793 16.127,41.311 C11.631,36.512 8.600,28.712 7.545,24.907 C7.192,23.637 6.148,22.751 4.939,22.519 C4.055,14.543 6.616,10.362 8.397,8.483 C9.038,9.477 10.392,10.019 11.524,9.685 L15.988,8.365 C17.170,8.016 17.672,6.840 17.104,5.743 L15.225,2.098 C14.658,0.998 13.362,0.657 12.332,1.333 L8.380,3.920 C7.568,4.451 7.200,5.442 7.363,6.369 C5.217,8.349 1.653,13.207 2.741,22.850 C1.388,23.571 0.666,25.155 1.088,26.698 C1.293,27.434 4.816,39.869 12.418,47.059 ZM64.091,24.117 C66.658,24.117 68.743,26.204 68.743,28.779 C68.743,31.355 66.658,33.442 64.091,33.442 C61.521,33.442 59.438,31.355 59.438,28.779 C59.438,26.204 61.521,24.117 64.091,24.117 Z"/>
</svg>