<svg 
 xmlns="http://www.w3.org/2000/svg"
 xmlns:xlink="http://www.w3.org/1999/xlink"
 width="90px" height="90px">
<path fill-rule="evenodd"  fill="rgb(255, 255, 255)"
 d="M86.270,21.688 L90.000,17.959 L72.041,-0.000 L68.312,3.729 L70.936,6.354 L61.618,15.673 L52.032,6.087 L48.302,9.816 L53.549,15.063 L12.135,56.478 L16.549,60.892 L7.720,69.721 L12.135,74.136 L-0.000,86.270 L3.729,90.000 L15.864,77.865 L20.279,82.280 L29.107,73.451 L33.522,77.865 L74.936,36.451 L80.183,41.698 L83.913,37.968 L74.327,28.382 L83.645,19.063 L86.270,21.688 ZM20.279,74.820 L15.179,69.721 L20.279,64.622 L25.378,69.721 L20.279,74.820 ZM33.522,70.406 L19.594,56.478 L24.917,51.154 L28.131,54.367 L31.860,50.638 L28.647,47.425 L32.419,43.653 L35.632,46.866 L39.362,43.136 L36.148,39.924 L39.920,36.151 L53.848,50.080 L33.522,70.406 ZM57.578,46.350 L43.650,32.422 L47.421,28.650 L50.635,31.863 L54.365,28.134 L51.151,24.920 L57.278,18.793 L71.207,32.721 L57.578,46.350 ZM70.597,24.652 L65.347,19.402 L74.666,10.084 L79.916,15.334 L70.597,24.652 Z"/>
</svg>